<svg aria-hidden="true" style="position:absolute;width:0;height:0" xmlns="http://www.w3.org/2000/svg" overflow="hidden"><defs><symbol id="1" viewBox="0 0 300 300"><path fill="#fff" d="M0 0h300v300H0z"/><circle cy="150" fill="#eb4c4d" r="20" cx="150"/></symbol><symbol id="2" viewBox="0 0 300 300"><path fill="#fff" d="M0 0h300v300H0z"/><circle cy="70" fill="#eb4c4d" r="20" cx="230"/><circle cy="230" fill="#eb4c4d" r="20" cx="70"/></symbol><symbol id="3" viewBox="0 0 300 300"><path fill="#fff" d="M0 0h300v300H0z"/><circle cy="70" fill="#eb4c4d" r="20" cx="230"/><circle cy="230" fill="#eb4c4d" r="20" cx="70"/><circle cy="150" fill="#eb4c4d" r="20" cx="150"/></symbol><symbol id="4" viewBox="0 0 300 300"><path fill="#fff" d="M0 0h300v300H0z"/><circle cy="70" fill="#eb4c4d" r="20" cx="230"/><circle cy="230" fill="#eb4c4d" r="20" cx="70"/><circle cy="70" fill="#eb4c4d" r="20" cx="70"/><circle cy="230" fill="#eb4c4d" r="20" cx="230"/></symbol><symbol id="5" viewBox="0 0 300 300"><path fill="#fff" d="M0 0h300v300H0z"/><circle cy="70" fill="#eb4c4d" r="20" cx="230"/><circle cy="230" fill="#eb4c4d" r="20" cx="70"/><circle cy="70" fill="#eb4c4d" r="20" cx="70"/><circle cy="230" fill="#eb4c4d" r="20" cx="230"/><circle cy="150" fill="#eb4c4d" r="20" cx="150"/></symbol><symbol id="6" viewBox="0 0 300 300"><path fill="#fff" d="M0 0h300v300H0z"/><circle cy="70" fill="#eb4c4d" r="20" cx="230"/><circle cy="230" fill="#eb4c4d" r="20" cx="70"/><circle cy="70" fill="#eb4c4d" r="20" cx="70"/><circle cy="230" fill="#eb4c4d" r="20" cx="230"/><circle cy="150" fill="#eb4c4d" r="20" cx="70"/><circle cy="150" fill="#eb4c4d" r="20" cx="230"/></symbol></defs></svg>