<svg aria-hidden="true" style="position:absolute;width:0;height:0" xmlns="http://www.w3.org/2000/svg" overflow="hidden"><defs><symbol id="rules" viewBox="0 0 24 24"><path d="M23 12c0-3.037-1.232-5.789-3.222-7.778S15.037 1 12 1 6.211 2.232 4.222 4.222 1 8.963 1 12s1.232 5.789 3.222 7.778S8.963 23 12 23s5.789-1.232 7.778-3.222S23 15.037 23 12zm-2 0c0 2.486-1.006 4.734-2.636 6.364S14.486 21 12 21s-4.734-1.006-6.364-2.636S3 14.486 3 12s1.006-4.734 2.636-6.364S9.514 3 12 3s4.734 1.006 6.364 2.636S21 9.514 21 12zm-8 4v-4a1 1 0 00-2 0v4a1 1 0 002 0zm-1-7a1 1 0 100-2 1 1 0 000 2z"/></symbol><symbol id="new" viewBox="0 0 24 24"><path d="M23 12c0-3.037-1.232-5.789-3.222-7.778S15.037 1 12 1 6.211 2.232 4.222 4.222 1 8.963 1 12s1.232 5.789 3.222 7.778S8.963 23 12 23s5.789-1.232 7.778-3.222S23 15.037 23 12zm-2 0c0 2.486-1.006 4.734-2.636 6.364S14.486 21 12 21s-4.734-1.006-6.364-2.636S3 14.486 3 12s1.006-4.734 2.636-6.364S9.514 3 12 3s4.734 1.006 6.364 2.636S21 9.514 21 12zM8 13h3v3a1 1 0 002 0v-3h3a1 1 0 000-2h-3V8a1 1 0 00-2 0v3H8a1 1 0 000 2z"/></symbol><symbol id="hold" viewBox="0 0 32 32"><path d="M16 18l8-8h-6V2h-4v8H8zm7.273-3.273l-2.242 2.242L29.159 20l-13.158 4.907L2.843 20l8.127-3.031-2.242-2.242L.001 18v8l16 6 16-6v-8z"/></symbol><symbol id="roll" viewBox="0 0 32 32"><path d="M27.802 5.197A15.958 15.958 0 0015.999 0c-8.837 0-16 7.163-16 16h3c0-7.18 5.82-13 13-13 3.844 0 7.298 1.669 9.678 4.322L20.999 12h11V1l-4.198 4.197zM29 16c0 7.18-5.82 13-13 13a12.965 12.965 0 01-9.678-4.322L11 20H0v11l4.197-4.197A15.958 15.958 0 0016 32c8.837 0 16-7.163 16-16h-3z"/></symbol></defs></svg>